<svg id="Layer_1" viewBox="0 0 512 512" xmlns="http://www.w3.org/2000/svg" data-name="Layer 1"><path d="m274.769 423.4h-194.169a8 8 0 1 0 0 16h194.169a8 8 0 1 0 0-16zm8-45.1a8 8 0 0 0 -8-8h-194.138a8 8 0 0 0 0 16h194.138a8.005 8.005 0 0 0 8-8zm148.459-8h-116.454a8 8 0 0 0 -8 8v53.1a8 8 0 0 0 8 8h116.458a8 8 0 0 0 8-8v-53.1a8 8 0 0 0 -8-8zm.071-53.1h-116.525a8 8 0 1 0 0 16h116.526a8 8 0 0 0 0-16zm.028-53.111h-116.553a8 8 0 1 0 0 16h116.557a8 8 0 1 0 0-16zm.042-53.1h-114.169a8 8 0 1 0 0 16h114.17a8 8 0 1 0 0-16zm-124.6-45.1a8 8 0 0 0 8 8h116.631a8 8 0 0 0 0-16h-116.626a8 8 0 0 0 -8 8zm-117.68 44.82a11 11 0 1 0 11-11 11 11 0 0 0 -11 11zm85.679-52.819h-194.168a8 8 0 0 0 -8 8v144.589a8 8 0 0 0 8 8h194.169a8.005 8.005 0 0 0 8-8v-144.591a8 8 0 0 0 -8-7.999zm-8 103.61-36.637-30.571a8.01 8.01 0 0 0 -9.433-.6l-36.744 23.471-22.634-28.891a8 8 0 0 0 -10.338-1.971l-62.382 36.481v-85.527h178.17zm-199.484-209.849a12.027 12.027 0 1 0 -12.032 12.018 12.055 12.055 0 0 0 12.032-12.018zm44.056 0a12.025 12.025 0 1 0 -12.027 12.018 12.054 12.054 0 0 0 12.027-12.018zm32.029 12.018a12.025 12.025 0 1 0 -12.017-12.018 12.052 12.052 0 0 0 12.017 12.018zm166.052-4.019h144.8a8 8 0 1 0 0-16h-144.8a8 8 0 1 0 0 16zm160.311-58.65h-427.46a41.312 41.312 0 0 0 -41.272 41.27v427.459a41.313 41.313 0 0 0 41.272 41.271h427.46a41.309 41.309 0 0 0 41.268-41.271v-427.459a41.308 41.308 0 0 0 -41.268-41.27zm-6.332 462.4h-414.8v-329.513h414.8zm31.6-377.111h-478v-44.019a25.3 25.3 0 0 1 25.272-25.27h427.46a25.3 25.3 0 0 1 25.268 25.27z" fill-rule="evenodd"/></svg>