<svg id="Layer_1" height="512" viewBox="0 0 66 66" width="512" xmlns="http://www.w3.org/2000/svg"><g><g><path d="m33 41c-2.6 0-4.7 2.1-4.7 4.7 0 2.7 2.1 5.9 4.7 5.9s4.7-3.2 4.7-5.9c0-2.6-2.1-4.7-4.7-4.7z"/></g><g><path d="m64.7 48.4c-.1-1-.6-2-1.5-2.5-1.4-.8-2.8-1.3-4.1-1.7-.4-.1-.9.1-1.1.5l-2.5 4.5h-.8l-2.5-4.5c-.2-.4-.7-.6-1.1-.5-1.4.4-2.7.9-4.1 1.7-.9.5-1.5 1.5-1.6 2.5l-.7 8.6c0 .3.1.5.3.8.2.2.5.3.7.3h18.6c.3 0 .5-.1.7-.3s.3-.5.3-.8z"/></g><g><path d="m50.3 38.8c0 2.7 2.1 5.9 4.7 5.9s4.7-3.2 4.7-5.9c0-2.6-2.1-4.7-4.7-4.7-2.6-.1-4.7 2.1-4.7 4.7z"/></g><g><path d="m6.3 38.8c0 2.7 2.1 5.9 4.7 5.9s4.7-3.2 4.7-5.9c0-2.6-2.1-4.7-4.7-4.7s-4.7 2.1-4.7 4.7z"/></g><g><path d="m19.2 46c-1.4-.8-2.8-1.3-4.1-1.7-.4-.1-.9.1-1.1.5l-2.5 4.5h-.8l-2.5-4.5c-.2-.4-.7-.6-1.1-.5-1.4.4-2.7.9-4.1 1.7-.9.5-1.5 1.5-1.6 2.5l-.7 8.5c0 .3.1.5.3.8.2.2.5.3.7.3h18.6c.3 0 .5-.1.7-.3s.3-.5.3-.8l-.6-8.6c0-1-.6-1.9-1.5-2.4z"/></g><g><path d="m41.2 52.9c-1.4-.8-2.8-1.3-4.1-1.7-.4-.1-.9.1-1.1.5l-2.5 4.5h-.8l-2.5-4.5c-.2-.4-.7-.6-1.1-.5-1.4.4-2.7.9-4.1 1.7-.9.5-1.5 1.5-1.6 2.5l-.6 8.6c0 .3.1.5.3.8.2.2.5.3.7.3h18.6c.3 0 .5-.1.7-.3s.3-.5.3-.8l-.6-8.6c-.1-1.1-.7-2-1.6-2.5z"/></g><g><path d="m10 30v2.1c.3-.1.7-.1 1-.1s.7 0 1 .1v-2.1l4.3-4.3c.4-.4.4-1 0-1.4s-1-.4-1.4 0l-2.9 2.9v-9.2h5v1.3c0 .5.4 1 1 1l2.2.1c.3 1.1.7 2.2 1.3 3.2l-1.5 1.7c-.4.4-.3 1 0 1.4l3.3 3.3c.4.4 1 .4 1.4 0l1.6-1.5c1 .6 2.1 1 3.2 1.3l.1 2.3c0 .5.5 1 1 1h1.4v6c.3 0 .7-.1 1-.1s.7 0 1 .1v-6h1.3c.5 0 1-.4 1-1l.1-2.3c1.1-.3 2.2-.7 3.2-1.3l1.7 1.5c.4.4 1 .4 1.4 0l3.3-3.3c.4-.4.4-1 0-1.4l-1.5-1.6c.6-1 1-2.1 1.3-3.2l2.2-.1c.5 0 1-.5 1-1v-1.4h5v9.2l-2.9-2.9c-.4-.4-1-.4-1.4 0s-.4 1 0 1.4l4.3 4.3v2.1c.3-.1.7-.1 1-.1s.7 0 1 .1v-2.1l4.3-4.3c.4-.4.4-1 0-1.4s-1-.4-1.4 0l-2.9 2.9v-10.2c0-.6-.4-1-1-1h-6v-1.3c0-.5-.4-1-1-1l-2.2-.1c-.3-1.1-.8-2.2-1.3-3.2l1.5-1.7c.4-.4.3-1 0-1.4l-3.3-3.3c-.4-.4-1-.4-1.4 0l-1.7 1.5c-1-.6-2.1-1-3.2-1.3l-.1-2.2c0-.5-.5-1-1-1h-4.7c-.5 0-1 .4-1 1l-.1 2.2c-1.1.3-2.2.8-3.2 1.3l-1.6-1.5c-.4-.4-1-.3-1.4 0l-3.3 3.3c-.4.4-.4 1 0 1.4l1.5 1.7c-.6 1-1 2.1-1.3 3.2l-2.2.1c-.5 0-1 .5-1 1v1.3h-6c-.6 0-1 .4-1 1v10.2l-2.9-2.9c-.4-.4-1-.4-1.4 0s-.4 1 0 1.4zm23-18.9c3.3 0 5.9 2.7 5.9 5.9 0 3.3-2.7 5.9-5.9 5.9-3.3 0-5.9-2.7-5.9-5.9s2.6-5.9 5.9-5.9z"/></g></g></svg>

