<svg id="Layer_5" enable-background="new 0 0 64 64" height="512" viewBox="0 0 64 64" width="512" xmlns="http://www.w3.org/2000/svg"><g><path d="m5 25v16h4v-16h1.382c.894 0 1.618-.724 1.618-1.618 0-.251-.058-.499-.171-.724l-3.382-6.764c-.274-.548-.834-.894-1.447-.894s-1.173.346-1.447.894l-3.382 6.764c-.113.225-.171.473-.171.724 0 .894.724 1.618 1.618 1.618z"/><path d="m19.553 28.106c.274.548.834.894 1.447.894s1.173-.346 1.447-.894l3.382-6.764c.113-.225.171-.473.171-.724 0-.894-.724-1.618-1.618-1.618h-1.382v-16h-4v16h-1.382c-.894 0-1.618.724-1.618 1.618 0 .251.058.499.171.724z"/><path d="m35 29h22v-6h-22zm6-4h2v2h-2zm-4 0h2v2h-2z"/><path d="m57 7h-22v6h22zm-18 4h-2v-2h2zm4 0h-2v-2h2z"/><path d="m39.762 54.014c-.108-.278-.344-.495-.646-.594-1.266-.417-2.116-1.591-2.116-2.922v-.996c0-1.331.85-2.505 2.114-2.921.303-.099.54-.316.648-.596.051-.13.104-.261.161-.39.119-.274.105-.592-.038-.874-.51-1.01-.416-2.191.199-3.102-1.732-3.98-5.711-6.619-10.084-6.619-3.924 0-7.579 2.115-9.539 5.519l-.3.52-1.194-.039c-3.5 0-6.657 2.371-7.644 5.765l-.316 1.085-1.039-.445c-.624-.269-1.286-.405-1.968-.405-2.757 0-5 2.243-5 5s2.243 5 5 5h31.58c-.063-.578.03-1.174.306-1.721.143-.282.156-.6.038-.873-.057-.13-.111-.26-.162-.392zm-17.561-7.413c-.764-1.018-1.931-1.601-3.201-1.601-1.895 0-3.543 1.345-3.92 3.199l-1.96-.398c.565-2.782 3.038-4.801 5.88-4.801 1.905 0 3.654.875 4.8 2.399zm7.799-7.601c-.594 0-1.183.074-1.75.22l-.499-1.937c.73-.188 1.487-.283 2.249-.283 4.109 0 7.693 2.776 8.716 6.75l-1.936.5c-.796-3.091-3.584-5.25-6.78-5.25z"/><path d="m35 21h22v-6h-22zm18-4h2v2h-2zm-4 0h2v2h-2z"/><path d="m60.261 48.481c-.873-.287-1.561-.932-1.887-1.771-.042-.109-.086-.215-.132-.321-.356-.819-.324-1.756.087-2.571.21-.415.13-.916-.199-1.245l-.704-.704c-.33-.33-.83-.411-1.245-.199-.815.411-1.753.443-2.572.087-.105-.045-.212-.089-.319-.131-.839-.326-1.484-1.014-1.771-1.886-.145-.443-.556-.74-1.021-.74h-.996c-.465 0-.875.297-1.021.739-.287.873-.933 1.561-1.772 1.887-.107.042-.214.085-.32.131-.818.356-1.756.325-2.571-.087-.416-.211-.916-.13-1.245.199l-.704.704c-.329.329-.409.83-.199 1.245.412.815.443 1.752.087 2.572-.045.104-.089.211-.131.318-.327.84-1.015 1.486-1.887 1.772-.442.146-.739.557-.739 1.022v.996c0 .465.297.875.739 1.021.873.287 1.561.932 1.887 1.771.042.109.086.215.132.321.356.819.324 1.756-.087 2.571-.21.415-.13.915.199 1.244l.705.705c.329.329.829.409 1.244.199.439-.222.914-.333 1.386-.333.405 0 .808.082 1.186.247.104.045.211.089.318.131.84.327 1.486 1.014 1.772 1.886.146.443.556.74 1.021.74h.996c.465 0 .875-.297 1.021-.739.287-.873.932-1.561 1.771-1.887.109-.042.215-.086.321-.132.818-.355 1.757-.324 2.571.087.415.209.915.13 1.244-.199l.705-.705c.329-.329.409-.829.199-1.244-.412-.815-.443-1.752-.087-2.572.045-.104.089-.211.131-.318.327-.84 1.014-1.486 1.886-1.772.443-.146.74-.556.74-1.021v-.499-.498c0-.465-.297-.876-.739-1.021zm-10.261 7.519c-3.314 0-6-2.686-6-6s2.686-6 6-6 6 2.686 6 6-2.686 6-6 6z"/><path d="m35 34.015c2.81 1.179 5.166 3.326 6.58 6.093.916-.639 2.117-.74 3.141-.223.282.143.6.156.873.038.129-.056.26-.11.391-.161.28-.109.497-.345.596-.646.416-1.266 1.59-2.116 2.921-2.116h.996c1.331 0 2.505.85 2.921 2.114.099.303.317.54.596.648.131.051.262.105.39.161.275.119.593.105.874-.038.547-.276 1.143-.369 1.721-.306v-8.579h-22zm18-1.015h2v2h-2zm-4 0h2v2h-2z"/><path d="m58 3h-24c-1.654 0-3 1.346-3 3v27.039c.679.053 1.347.161 2 .317v-26.356c0-1.103.897-2 2-2h22c1.103 0 2 .897 2 2v33.615l.544.544c.942.941 1.171 2.373.57 3.561-.143.282-.156.6-.038.873.057.13.11.261.161.393.108.278.344.495.646.594.04.013.077.034.116.049v-40.629c.001-1.654-1.345-3-2.999-3z"/><circle cx="50" cy="50" r="2"/></g></svg>