<svg enable-background="new 0 0 32 32" viewBox="0 0 32 32" xmlns="http://www.w3.org/2000/svg"><g id="Grid" display="none"/><g id="account"/><g id="Add_account"/><g id="remove_account"/><g id="block_account"/><g id="search_account"/><g id="lock_account"/><g id="love"/><g id="edit_account"/><g id="sound"/><g id="graduation"/><g id="target"/><g id="favorite"/><g id="security"/><g id="delete_account"/><g id="unlock_account"/><g id="setting"/><g id="public_account"/><g id="chat"/><g id="verified_account"/><g id="group"/><g id="bookmark"/><g id="database"/><g id="cloud"/><g id="link"/><g id="bank_account"/><g id="change"/><g id="view"/><g id="message"/><g id="location"/><g id="winner"/><g id="log_in"/><g id="log_out"/><g id="transfer"/><g id="change_account"/><g id="navigation"/><g id="delete_group"/><g id="join_group"><circle cx="16" cy="9.355" r="6.129"/><path d="m23.212 5.55c-.084 0-.162.02-.244.025.613 1.125.961 2.413.961 3.781 0 2.185-.889 4.167-2.324 5.603.505.178 1.041.294 1.607.294 2.679 0 4.851-2.172 4.851-4.851s-2.172-4.852-4.851-4.852z"/><circle cx="16" cy="9.355" r="6.129"/><path d="m5.624 22.343c0-2.028.715-3.915 1.928-5.42-.942-.18-1.819-.548-2.576-1.081-1.765.897-2.976 2.724-2.976 4.839v.776c0 .578.406 1.077.974 1.186.802.154 1.689.29 2.65.388z"/><path d="m8.071 9.355c0-1.368.348-2.656.961-3.781-.082-.004-.16-.024-.244-.024-2.679 0-4.851 2.172-4.851 4.851s2.172 4.851 4.851 4.851c.566 0 1.102-.116 1.607-.294-1.435-1.435-2.324-3.417-2.324-5.603z"/><path d="m25.578 18.131c1.701 0 3.244.688 4.368 1.798-.249-1.79-1.371-3.298-2.922-4.086-.758.532-1.634.901-2.576 1.081.31.384.586.793.827 1.223.101-.006.201-.016.303-.016z"/><path d="m19.356 24.353c0-2.668 1.691-4.943 4.055-5.825-.754-1.122-1.828-2.011-3.095-2.531-1.244.811-2.725 1.287-4.317 1.287s-3.073-.476-4.317-1.287c-2.498 1.025-4.26 3.478-4.26 6.346v.98c0 .731.513 1.36 1.23 1.498 2.048.392 4.528.697 7.346.697 1.219 0 2.36-.065 3.445-.161-.052-.329-.087-.662-.087-1.004z"/><path d="m25.58 19.93c-2.44 0-4.42 1.98-4.42 4.42s1.98 4.42 4.42 4.42 4.42-1.98 4.42-4.42-1.98-4.42-4.42-4.42zm1.512 5.323h-.614v.613c0 .497-.403.9-.9.9s-.9-.403-.9-.9v-.613h-.614c-.497 0-.9-.403-.9-.9s.403-.9.9-.9h.614v-.613c0-.497.403-.9.9-.9s.9.403.9.9v.613h.614c.497 0 .9.403.9.9s-.403.9-.9.9z"/></g><g id="block_group"/><g id="attachment"/><g id="download"/><g id="upload"/><g id="anonymous"/><g id="leave_group_1_"/><g id="chatting"/><g id="share"/><g id="at"/><g id="id_card"/><g id="rotate"/><g id="audio_1_"/><g id="avatar"/></svg>