<svg xmlns="http://www.w3.org/2000/svg" version="1.1" xmlns:xlink="http://www.w3.org/1999/xlink" width="512" height="512" x="0" y="0" viewBox="0 0 24 24" style="enable-background:new 0 0 512 512" xml:space="preserve" class=""><g>
  <!-- Removed the first gradient white-to-transparent and blue-to-transparent paths -->
  <path fill="#90a4ae" d="M15.121 22.679c-1.064-1.064-1.096-2.095-1.096-2.146a.405.405 0 0 0-.405-.403h-3.256a.408.408 0 0 0-.405.407c0 .044-.014 1.075-1.08 2.141a.404.404 0 0 0 .286.691h5.67a.403.403 0 0 0 .286-.69z" opacity="1" data-original="#90a4ae" class=""></path>
  <path fill="#000000" d="M23.25 16.75v2.5c0 .55-.45 1-1 1H1.75c-.55 0-1-.45-1-1v-2.5z" opacity="1" data-original="#607d8b" class=""></path>
  <path fill="#000000" d="M14.975 9h-5.95C8.321 9 7.75 8.328 7.75 7.5v-2c0-.828.571-1.5 1.275-1.5h5.95c.704 0 1.275.672 1.275 1.5v2c0 .828-.571 1.5-1.275 1.5z" opacity="1" data-original="#2196f3" class=""></path>
  <path d="M15.25 9.5h-6.5C7.785 9.5 7 8.715 7 7.75v-3C7 3.785 7.785 3 8.75 3h6.5c.965 0 1.75.785 1.75 1.75v3c0 .965-.785 1.75-1.75 1.75zm-6.5-5a.25.25 0 0 0-.25.25v3c0 .138.112.25.25.25h6.5a.25.25 0 0 0 .25-.25v-3a.25.25 0 0 0-.25-.25zM13.25 2.5a.75.75 0 0 1-.468-.164L12 1.711l-.781.625a.75.75 0 0 1-.937-1.172l1.25-1a.752.752 0 0 1 .938 0l1.25 1a.752.752 0 0 1-.47 1.336zM12 13a.753.753 0 0 1-.469-.164l-1.25-1a.75.75 0 0 1 .937-1.172l.782.625.781-.625a.75.75 0 0 1 .937 1.172l-1.25 1A.748.748 0 0 1 12 13z" fill="#000000" opacity="1" data-original="#000000" class=""></path>
  <path d="M22.25 21H1.75C.785 21 0 20.215 0 19.25V5.75C0 4.785.785 4 1.75 4h3a.75.75 0 0 1 0 1.5h-3a.253.253 0 0 0-.25.25v13.5c0 .136.114.25.25.25h20.5c.136 0 .25-.114.25-.25V5.75a.253.253 0 0 0-.25-.25h-3a.75.75 0 0 1 0-1.5h3c.965 0 1.75.785 1.75 1.75v13.5c0 .965-.785 1.75-1.75 1.75z" fill="#000000" opacity="1" data-original="#000000" class=""></path>
  <path d="M23.25 17.5H.75a.75.75 0 0 1 0-1.5h22.5a.75.75 0 0 1 0 1.5zM15.25 24h-6.5a.75.75 0 0 1-.53-1.28c1.041-1.041 1.265-2.553 1.267-2.567a.75.75 0 0 1 1.487.195 6.725 6.725 0 0 1-.744 2.152h3.523a6.88 6.88 0 0 1-.746-2.147.75.75 0 0 1 1.486-.207c.007.045.232 1.469 1.184 2.487A.75.75 0 0 1 15.25 24z" fill="#000000" opacity="1" data-original="#000000" class=""></path>
</g></svg>